<svg width="132" height="48" viewBox="0 0 132 48" fill="none" xmlns="http://www.w3.org/2000/svg">
<rect width="132" height="48" fill="black"/>
<path d="M16.54 28.336C15.6253 28.336 14.7293 28.2146 13.852 27.972C12.9746 27.7106 12.172 27.356 11.444 26.908C10.7346 26.46 10.1466 25.956 9.67997 25.396C9.2133 24.8173 8.9333 24.2106 8.83997 23.576L13.992 22.148C14.16 22.6146 14.4493 23.016 14.86 23.352C15.2706 23.6693 15.8026 23.8466 16.456 23.884C16.9786 23.9026 17.436 23.7626 17.828 23.464C18.2386 23.1653 18.444 22.7733 18.444 22.288C18.444 21.9706 18.3226 21.672 18.08 21.392C17.856 21.0933 17.492 20.8786 16.988 20.748L14.048 19.992C13.04 19.7306 12.172 19.3293 11.444 18.788C10.7346 18.2466 10.184 17.584 9.79197 16.8C9.41863 16.016 9.23197 15.1386 9.23197 14.168C9.23197 12.2453 9.86663 10.752 11.136 9.68796C12.424 8.6053 14.2253 8.06396 16.54 8.06396C17.772 8.06396 18.8546 8.22263 19.788 8.53996C20.74 8.8573 21.552 9.3613 22.224 10.052C22.9146 10.724 23.484 11.6106 23.932 12.712L18.808 14.196C18.7146 13.8226 18.472 13.4493 18.08 13.076C17.7066 12.7026 17.1933 12.516 16.54 12.516C15.9053 12.516 15.4106 12.656 15.056 12.936C14.72 13.216 14.552 13.6266 14.552 14.168C14.552 14.504 14.692 14.8026 14.972 15.064C15.252 15.3066 15.6533 15.4933 16.176 15.624L19.144 16.38C20.6373 16.7533 21.804 17.4906 22.644 18.592C23.484 19.6746 23.904 20.916 23.904 22.316C23.904 23.604 23.6053 24.696 23.008 25.592C22.4293 26.488 21.5893 27.1693 20.488 27.636C19.3866 28.1026 18.0706 28.336 16.54 28.336Z" fill="white"/>
<path d="M30.529 28V13.16H24.985V8.39996H41.225V13.16H35.709V28H30.529Z" fill="white"/>
<path d="M43.1082 28V8.39996H56.2402V13.16H48.2882V15.876H54.7282V20.496H48.2882V23.24H56.4362V28H43.1082Z" fill="white"/>
<path d="M59.2345 28V8.39996H64.9745L69.7065 15.4L74.4385 8.39996H80.1785V28H74.9985V16.408L69.7345 24.08L64.4145 16.408V28H59.2345Z" fill="white"/>
<path d="M97.5002 28.336C95.7642 28.336 94.2709 28.0186 93.0202 27.384C91.7696 26.7493 90.8082 25.844 90.1362 24.668C89.4829 23.4733 89.1562 22.0546 89.1562 20.412V8.39996H94.3362V20.412C94.3362 21.0653 94.4669 21.6253 94.7282 22.092C94.9896 22.5586 95.3535 22.9133 95.8202 23.156C96.3055 23.3986 96.8842 23.52 97.5562 23.52C98.2282 23.52 98.8069 23.3986 99.2922 23.156C99.7775 22.9133 100.142 22.5586 100.384 22.092C100.646 21.6253 100.776 21.0653 100.776 20.412V8.39996H105.956V20.412C105.956 22.0546 105.62 23.4733 104.948 24.668C104.276 25.844 103.306 26.7493 102.036 27.384C100.786 28.0186 99.2735 28.336 97.5002 28.336Z" fill="white"/>
<path d="M108.762 28V8.39996H116.882C118.356 8.39996 119.663 8.6893 120.802 9.26796C121.94 9.84663 122.827 10.6493 123.462 11.676C124.115 12.7026 124.442 13.888 124.442 15.232C124.442 16.576 124.115 17.7706 123.462 18.816C122.827 19.8426 121.94 20.6546 120.802 21.252C119.663 21.8306 118.356 22.12 116.882 22.12H113.942V28H108.762ZM113.942 17.36H116.742C117.451 17.36 118.02 17.164 118.45 16.772C118.898 16.38 119.122 15.8666 119.122 15.232C119.122 14.616 118.898 14.112 118.45 13.72C118.02 13.328 117.451 13.132 116.742 13.132H113.942V17.36Z" fill="white"/>
<path d="M8.91199 40V31.6H10.556V38.5H14.252V40H8.91199Z" fill="white"/>
<path d="M21.6273 40L18.4113 31.6H20.0553L23.3673 40H21.6273ZM14.9913 40L18.3033 31.6H19.9473L16.7313 40H14.9913ZM16.5513 38.152V36.7H21.8193V38.152H16.5513ZM20.7273 30.628C20.5113 30.628 20.3193 30.544 20.1513 30.376C19.9913 30.208 19.9113 30.016 19.9113 29.8C19.9113 29.576 19.9913 29.384 20.1513 29.224C20.3193 29.056 20.5113 28.972 20.7273 28.972C20.9513 28.972 21.1433 29.056 21.3033 29.224C21.4713 29.384 21.5553 29.576 21.5553 29.8C21.5553 30.016 21.4713 30.208 21.3033 30.376C21.1433 30.544 20.9513 30.628 20.7273 30.628ZM17.6313 30.628C17.4073 30.628 17.2113 30.548 17.0433 30.388C16.8833 30.22 16.8033 30.024 16.8033 29.8C16.8033 29.568 16.8833 29.372 17.0433 29.212C17.2113 29.052 17.4073 28.972 17.6313 28.972C17.8553 28.972 18.0473 29.052 18.2073 29.212C18.3673 29.372 18.4473 29.568 18.4473 29.8C18.4473 30.024 18.3673 30.22 18.2073 30.388C18.0473 30.548 17.8553 30.628 17.6313 30.628Z" fill="white"/>
<path d="M24.8537 40V31.6H27.9737C28.5657 31.6 29.0897 31.716 29.5457 31.948C30.0017 32.18 30.3577 32.5 30.6137 32.908C30.8697 33.308 30.9977 33.776 30.9977 34.312C30.9977 34.84 30.8617 35.312 30.5897 35.728C30.3257 36.136 29.9617 36.456 29.4977 36.688C29.0337 36.912 28.5057 37.024 27.9137 37.024H26.4977V40H24.8537ZM29.4737 40L27.5297 36.628L28.7897 35.728L31.3337 40H29.4737ZM26.4977 35.524H27.9857C28.2337 35.524 28.4537 35.472 28.6457 35.368C28.8457 35.264 29.0017 35.12 29.1137 34.936C29.2337 34.752 29.2937 34.544 29.2937 34.312C29.2937 33.952 29.1617 33.66 28.8977 33.436C28.6417 33.212 28.3097 33.1 27.9017 33.1H26.4977V35.524Z" fill="white"/>
<path d="M38.9584 40L35.7424 31.6H37.3864L40.6984 40H38.9584ZM32.3224 40L35.6344 31.6H37.2784L34.0624 40H32.3224ZM33.8824 38.152V36.7H39.1504V38.152H33.8824Z" fill="white"/>
<path d="M42.1848 40V31.6H45.3048C45.8968 31.6 46.4208 31.716 46.8768 31.948C47.3328 32.18 47.6888 32.5 47.9448 32.908C48.2008 33.308 48.3288 33.776 48.3288 34.312C48.3288 34.84 48.1928 35.312 47.9208 35.728C47.6568 36.136 47.2928 36.456 46.8288 36.688C46.3648 36.912 45.8368 37.024 45.2448 37.024H43.8288V40H42.1848ZM46.8048 40L44.8608 36.628L46.1208 35.728L48.6648 40H46.8048ZM43.8288 35.524H45.3168C45.5648 35.524 45.7848 35.472 45.9768 35.368C46.1768 35.264 46.3328 35.12 46.4448 34.936C46.5648 34.752 46.6248 34.544 46.6248 34.312C46.6248 33.952 46.4928 33.66 46.2288 33.436C45.9728 33.212 45.6408 33.1 45.2328 33.1H43.8288V35.524Z" fill="white"/>
<path d="M51.3532 37.876L51.1612 35.812L55.0972 31.6H57.2212L51.3532 37.876ZM50.3692 40V31.6H51.9892V40H50.3692ZM55.3252 40L51.9772 35.728L53.1652 34.744L57.3532 40H55.3252Z" fill="white"/>
<path d="M62.2014 40.144C61.3534 40.144 60.6014 39.96 59.9454 39.592C59.2974 39.216 58.7894 38.704 58.4214 38.056C58.0534 37.4 57.8694 36.652 57.8694 35.812C57.8694 34.956 58.0534 34.204 58.4214 33.556C58.7894 32.9 59.2934 32.388 59.9334 32.02C60.5814 31.652 61.3254 31.468 62.1654 31.468C63.0134 31.468 63.7574 31.656 64.3974 32.032C65.0454 32.4 65.5534 32.912 65.9214 33.568C66.2894 34.216 66.4734 34.964 66.4734 35.812C66.4734 36.652 66.2894 37.4 65.9214 38.056C65.5614 38.704 65.0574 39.216 64.4094 39.592C63.7694 39.96 63.0334 40.144 62.2014 40.144ZM62.2014 38.644C62.7134 38.644 63.1614 38.524 63.5454 38.284C63.9374 38.036 64.2414 37.7 64.4574 37.276C64.6814 36.852 64.7934 36.364 64.7934 35.812C64.7934 35.252 64.6814 34.76 64.4574 34.336C64.2334 33.912 63.9254 33.58 63.5334 33.34C63.1414 33.092 62.6854 32.968 62.1654 32.968C61.6614 32.968 61.2094 33.092 60.8094 33.34C60.4174 33.58 60.1094 33.912 59.8854 34.336C59.6614 34.76 59.5494 35.252 59.5494 35.812C59.5494 36.364 59.6614 36.852 59.8854 37.276C60.1094 37.7 60.4214 38.036 60.8214 38.284C61.2214 38.524 61.6814 38.644 62.2014 38.644Z" fill="white"/>
<path d="M68.2567 40V31.6H69.9727L74.0767 37.24V31.6H75.7087V40H74.0767L69.9007 34.252V40H68.2567Z" fill="white"/>
<path d="M77.9879 40V31.6H83.3759V33.1H79.6319V35.116H82.7519V36.616H79.6319V40H77.9879Z" fill="white"/>
<path d="M85.1125 40V31.6H90.4285V33.1H86.7565V35.008H89.9245V36.472H86.7565V38.5H90.4765V40H85.1125Z" fill="white"/>
<path d="M92.6589 40V31.6H95.7789C96.3709 31.6 96.8949 31.716 97.3509 31.948C97.8069 32.18 98.1629 32.5 98.4189 32.908C98.6749 33.308 98.8029 33.776 98.8029 34.312C98.8029 34.84 98.6669 35.312 98.3949 35.728C98.1309 36.136 97.7669 36.456 97.3029 36.688C96.8389 36.912 96.3109 37.024 95.7189 37.024H94.3029V40H92.6589ZM97.2789 40L95.3349 36.628L96.5949 35.728L99.1389 40H97.2789ZM94.3029 35.524H95.7909C96.0389 35.524 96.2589 35.472 96.4509 35.368C96.6509 35.264 96.8069 35.12 96.9189 34.936C97.0389 34.752 97.0989 34.544 97.0989 34.312C97.0989 33.952 96.9669 33.66 96.7029 33.436C96.4469 33.212 96.1149 33.1 95.7069 33.1H94.3029V35.524Z" fill="white"/>
<path d="M100.873 40V31.6H106.189V33.1H102.517V35.008H105.685V36.472H102.517V38.5H106.237V40H100.873Z" fill="white"/>
<path d="M108.42 40V31.6H110.136L114.24 37.24V31.6H115.872V40H114.24L110.064 34.252V40H108.42Z" fill="white"/>
<path d="M120.971 40.144C120.547 40.144 120.151 40.092 119.783 39.988C119.415 39.884 119.087 39.74 118.799 39.556C118.511 39.364 118.271 39.152 118.079 38.92C117.895 38.688 117.775 38.444 117.719 38.188L119.327 37.708C119.431 37.98 119.615 38.216 119.879 38.416C120.143 38.608 120.475 38.708 120.875 38.716C121.299 38.724 121.643 38.632 121.907 38.44C122.179 38.248 122.315 38 122.315 37.696C122.315 37.432 122.207 37.212 121.991 37.036C121.783 36.852 121.495 36.712 121.127 36.616L120.035 36.328C119.627 36.224 119.267 36.068 118.955 35.86C118.643 35.644 118.399 35.38 118.223 35.068C118.047 34.756 117.959 34.392 117.959 33.976C117.959 33.184 118.219 32.568 118.739 32.128C119.267 31.68 120.011 31.456 120.971 31.456C121.507 31.456 121.975 31.536 122.375 31.696C122.783 31.848 123.123 32.068 123.395 32.356C123.667 32.644 123.875 32.984 124.019 33.376L122.423 33.868C122.327 33.596 122.151 33.364 121.895 33.172C121.639 32.98 121.315 32.884 120.923 32.884C120.523 32.884 120.207 32.976 119.975 33.16C119.751 33.344 119.639 33.604 119.639 33.94C119.639 34.204 119.727 34.412 119.903 34.564C120.087 34.716 120.335 34.832 120.647 34.912L121.751 35.188C122.471 35.364 123.031 35.68 123.431 36.136C123.831 36.592 124.031 37.1 124.031 37.66C124.031 38.156 123.911 38.592 123.671 38.968C123.431 39.336 123.083 39.624 122.627 39.832C122.171 40.04 121.619 40.144 120.971 40.144Z" fill="white"/>
</svg>
