<svg id="icons" viewBox="0 0 24 24" xmlns="http://www.w3.org/2000/svg">
    <symbol id="icon-arrow-right-line" viewBox="0 0 24 24" fill="currentColor"><path d="M16.1716 10.9999L10.8076 5.63589L12.2218 4.22168L20 11.9999L12.2218 19.778L10.8076 18.3638L16.1716 12.9999H4V10.9999H16.1716Z"></path></symbol>
    <symbol id="icon-cup-fill" viewBox="0 0 24 24" fill="currentColor"><path d="M5 3H20C21.1046 3 22 3.89543 22 5V8C22 9.10457 21.1046 10 20 10H18V13C18 15.2091 16.2091 17 14 17H8C5.79086 17 4 15.2091 4 13V4C4 3.44772 4.44772 3 5 3ZM18 5V8H20V5H18ZM2 19H20V21H2V19Z"></path></symbol>
    <symbol id="icon-circle-line" viewBox="0 0 24 24" fill="currentColor"><path d="M12 22C6.47715 22 2 17.5228 2 12C2 6.47715 6.47715 2 12 2C17.5228 2 22 6.47715 22 12C22 17.5228 17.5228 22 12 22ZM12 20C16.4183 20 20 16.4183 20 12C20 7.58172 16.4183 4 12 4C7.58172 4 4 7.58172 4 12C4 16.4183 7.58172 20 12 20Z"></path></symbol>
    <symbol id="icon-discuss-line" viewBox="0 0 24 24" fill="currentColor"><path d="M14 22.5L11.2 19H6C5.44772 19 5 18.5523 5 18V7.10256C5 6.55028 5.44772 6.10256 6 6.10256H22C22.5523 6.10256 23 6.55028 23 7.10256V18C23 18.5523 22.5523 19 22 19H16.8L14 22.5ZM15.8387 17H21V8.10256H7V17H11.2H12.1613L14 19.2984L15.8387 17ZM2 2H19V4H3V15H1V3C1 2.44772 1.44772 2 2 2Z"></path></symbol>
    <symbol id="icon-external-link-line" viewBox="0 0 24 24" fill="currentColor"><path d="M10 6V8H5V19H16V14H18V20C18 20.5523 17.5523 21 17 21H4C3.44772 21 3 20.5523 3 20V7C3 6.44772 3.44772 6 4 6H10ZM21 3V11H19L18.9999 6.413L11.2071 14.2071L9.79289 12.7929L17.5849 5H13V3H21Z"></path></symbol>
    <symbol id="icon-file-line" viewBox="0 0 24 24" fill="currentColor"><path d="M9 2.00318V2H19.9978C20.5513 2 21 2.45531 21 2.9918V21.0082C21 21.556 20.5551 22 20.0066 22H3.9934C3.44476 22 3 21.5501 3 20.9932V8L9 2.00318ZM5.82918 8H9V4.83086L5.82918 8ZM11 4V9C11 9.55228 10.5523 10 10 10H5V20H19V4H11Z"></path></symbol>
    <symbol id="icon-flag-2-fill" viewBox="0 0 24 24" fill="currentColor"><path d="M2 3H21.1384C21.4146 3 21.6385 3.22386 21.6385 3.5C21.6385 3.58701 21.6157 3.67252 21.5725 3.74807L18 10L21.5725 16.2519C21.7095 16.4917 21.6262 16.7971 21.3865 16.9341C21.3109 16.9773 21.2254 17 21.1384 17H4V22H2V3Z"></path></symbol>
    <symbol id="icon-flask-line" viewBox="0 0 24 24" fill="currentColor"><path d="M15.9994 2V4H14.9994V7.24291C14.9994 8.40051 15.2506 9.54432 15.7357 10.5954L20.017 19.8714C20.3641 20.6236 20.0358 21.5148 19.2836 21.8619C19.0865 21.9529 18.8721 22 18.655 22H5.34375C4.51532 22 3.84375 21.3284 3.84375 20.5C3.84375 20.2829 3.89085 20.0685 3.98181 19.8714L8.26306 10.5954C8.74816 9.54432 8.99939 8.40051 8.99939 7.24291V4H7.99939V2H15.9994ZM13.3873 10.0012H10.6115C10.5072 10.3644 10.3823 10.7221 10.2371 11.0724L10.079 11.4335L6.12439 20H17.8734L13.9198 11.4335C13.7054 10.9691 13.5276 10.4902 13.3873 10.0012ZM10.9994 7.24291C10.9994 7.49626 10.9898 7.7491 10.9706 8.00087H13.0282C13.0189 7.87982 13.0119 7.75852 13.0072 7.63704L12.9994 7.24291V4H10.9994V7.24291Z"></path></symbol>
    <symbol id="icon-group-line" viewBox="0 0 24 24" fill="currentColor"><path d="M2 22C2 17.5817 5.58172 14 10 14C14.4183 14 18 17.5817 18 22H16C16 18.6863 13.3137 16 10 16C6.68629 16 4 18.6863 4 22H2ZM10 13C6.685 13 4 10.315 4 7C4 3.685 6.685 1 10 1C13.315 1 16 3.685 16 7C16 10.315 13.315 13 10 13ZM10 11C12.21 11 14 9.21 14 7C14 4.79 12.21 3 10 3C7.79 3 6 4.79 6 7C6 9.21 7.79 11 10 11ZM18.2837 14.7028C21.0644 15.9561 23 18.752 23 22H21C21 19.564 19.5483 17.4671 17.4628 16.5271L18.2837 14.7028ZM17.5962 3.41321C19.5944 4.23703 21 6.20361 21 8.5C21 11.3702 18.8042 13.7252 16 13.9776V11.9646C17.6967 11.7222 19 10.264 19 8.5C19 7.11935 18.2016 5.92603 17.041 5.35635L17.5962 3.41321Z"></path></symbol>
    <symbol id="icon-keynote-line" viewBox="0 0 24 24" fill="currentColor"><path d="M4.43967 10H19.5605L18.3605 4H5.63967L4.43967 10ZM13.0001 12V20H17.0001V22H7.00006V20H11.0001V12H2.99187C2.44411 12 2.086 11.5703 2.19547 11.023L3.80465 2.97705C3.91258 2.43744 4.4447 2 5.00094 2H18.9992C19.552 2 20.086 2.42969 20.1955 2.97705L21.8047 11.023C21.9126 11.5626 21.5448 12 21.0083 12H13.0001Z"/></symbol>
    <symbol id="icon-layout-vertical-line" viewBox="0 0 24 24" fill="currentColor"><path d="M5 19H19V5H5V19ZM3 4C3 3.44772 3.44772 3 4 3H20C20.5523 3 21 3.44772 21 4V20C21 20.5523 20.5523 21 20 21H4C3.44772 21 3 20.5523 3 20V4ZM15 7V17H17V7H15ZM11 7L11 17H13V7H11ZM7 17L7 7L9 7L9 17H7Z"></path></symbol>
    <symbol id="icon-menu-line" viewBox="0 0 24 24" fill="currentColor"><path d="M3 4H21V6H3V4ZM3 11H21V13H3V11ZM3 18H21V20H3V18Z"></path></symbol>
    <symbol id="icon-presentation-fill" viewBox="0 0 24 24" fill="currentColor"><path d="M8 4C8 5.10457 7.10457 6 6 6 4.89543 6 4 5.10457 4 4 4 2.89543 4.89543 2 6 2 7.10457 2 8 2.89543 8 4ZM5 16V22H3V10C3 8.34315 4.34315 7 6 7 6.82059 7 7.56423 7.32946 8.10585 7.86333L10.4803 10.1057 12.7931 7.79289 14.2073 9.20711 10.5201 12.8943 9 11.4587V22H7V16H5ZM10 5H19V14H10V16H14.3654L17.1889 22H19.3993L16.5758 16H20C20.5523 16 21 15.5523 21 15V4C21 3.44772 20.5523 3 20 3H10V5Z"></path></symbol>
    <symbol id="icon-price-tag-3-line" viewBox="0 0 24 24" fill="currentColor"><path d="M10.9042 2.10025L20.8037 3.51446L22.2179 13.414L13.0255 22.6063C12.635 22.9969 12.0019 22.9969 11.6113 22.6063L1.71184 12.7069C1.32131 12.3163 1.32131 11.6832 1.71184 11.2926L10.9042 2.10025ZM11.6113 4.22157L3.83316 11.9997L12.3184 20.485L20.0966 12.7069L19.036 5.28223L11.6113 4.22157ZM13.7327 10.5855C12.9516 9.80448 12.9516 8.53815 13.7327 7.7571C14.5137 6.97606 15.78 6.97606 16.5611 7.7571C17.3421 8.53815 17.3421 9.80448 16.5611 10.5855C15.78 11.3666 14.5137 11.3666 13.7327 10.5855Z"></path></symbol>
    <symbol id="icon-restaurant-fill" viewBox="0 0 24 24" fill="currentColor"><path d="M21 2V22H19V14H16V7C16 4.23858 18.2386 2 21 2ZM9 13.9V22H7V13.9C4.71776 13.4367 3 11.419 3 9V3H5V10H7V3H9V10H11V3H13V9C13 11.419 11.2822 13.4367 9 13.9Z"></path></symbol>
    <symbol id="icon-star-fill" viewBox="0 0 24 24" fill="currentColor"><path d="M12.0006 18.26L4.94715 22.2082L6.52248 14.2799L0.587891 8.7918L8.61493 7.84006L12.0006 0.5L15.3862 7.84006L23.4132 8.7918L17.4787 14.2799L19.054 22.2082L12.0006 18.26Z"></path></symbol>
</svg>

